# xmcd
#
# Track frame offsets: 
#        150
#        12654
#        23195
#        36830
#        47864
#        67296
#        78978
#        89271
#        100042
#        113580
#        123676
#        137799
#        150231
#        160909
#        171193
#        180464
#        193401
#        203985
#        216069
#        225134
#        240677
#        248926
#        260063
#        272386
#        283598
#        292551
#        303650
#        316432
#        327377
#        339115
#
# Disc length: 4691 seconds
#
# Revision: 1
# Processed by: cddbd v1.5.2PL0 Copyright (c) Steve Scherf et al.
# Submitted via: ExactAudioCopy v1.1
#
DISCID=ab12511e
DTITLE=Wilson, Nancy - Wilson, Nancy - with Cannonball Adderly - with G
DTITLE=eorge Shearing
DYEAR=1961
DGENRE=Jazz
TTITLE0=Nancy Wilson with Cannonball Adderley (1961) - Save Your Love 
TTITLE0=For Me
TTITLE1=Never Will I Mary
TTITLE2=The Old Country
TTITLE3=Happy Talk
TTITLE4=The Masquerade Is Over
TTITLE5=A Sleepin' Bee
TTITLE6=Little Unhappy Boy
TTITLE7=The Swinging's Mutual (with George Shearing, 1960) - On Green 
TTITLE7=Dolphin Street
TTITLE8=The Nearness Of You
TTITLE9=Born To Be Blue
TTITLE10=All Night Long
TTITLE11=The Things We Did Last Summer
TTITLE12=Let's Live Again
TTITLE13=Ghost Of Yesterday
TTITLE14=Gentleman Friend
TTITLE15=Teach Me Tonight
TTITLE16=This Time The Dream's On Me
TTITLE17=Something Wonderful - The Billy May Orch (1960) - I'm Gonna L
TTITLE17=augh You Right Out Of My Life
TTITLE18=I Wish You Love
TTITLE19=Guess Who I Saw Today
TTITLE20=If Dreams Come True
TTITLE21=What A Little Moonlight Can Do
TTITLE22=The Great City
TTITLE23=He's My Guy
TTITLE24=Something Happens To Me
TTITLE25=Call It Stormy Monday
TTITLE26=Something Wonderful Happens
TTITLE27=The Seventh Son (bonus track, with Gerald Wilson and His Orch)
TTITLE28=My Foolish Heart (bonus track, with Gerald Wilson and His Orch)
TTITLE29=Don't Tell Me (bonus track, with Rusty Bryant and The Carolyn C
TTITLE29=lub Band)
EXTD=
EXTT0=
EXTT1=
EXTT2=
EXTT3=
EXTT4=
EXTT5=
EXTT6=
EXTT7=
EXTT8=
EXTT9=
EXTT10=
EXTT11=
EXTT12=
EXTT13=
EXTT14=
EXTT15=
EXTT16=
EXTT17=
EXTT18=
EXTT19=
EXTT20=
EXTT21=
EXTT22=
EXTT23=
EXTT24=
EXTT25=
EXTT26=
EXTT27=
EXTT28=
EXTT29=
PLAYORDER=
